<!-- Generator: Adobe Illustrator 23.0.1, SVG Export Plug-In  -->
<svg version="1.1" xmlns="http://www.w3.org/2000/svg" xmlns:xlink="http://www.w3.org/1999/xlink" x="0px" y="0px"
	 width="13.146px" height="10.001px" viewBox="0 0 13.146 10.001" style="enable-background:new 0 0 13.146 10.001;"
	 xml:space="preserve">
<defs>
</defs>
<path d="M4.816,2.203c-0.198,0-0.354-0.139-0.354-0.317C4.462,0.848,5.411,0,6.573,0s2.111,0.848,2.111,1.887
	c0,0.177-0.156,0.317-0.354,0.317S7.975,2.064,7.975,1.887c0-0.696-0.623-1.254-1.402-1.254S5.171,1.19,5.171,1.887
	C5.171,2.064,5.015,2.203,4.816,2.203z M2.139,8.316v1.19c0,0.198-0.156,0.354-0.354,0.354S1.431,9.704,1.431,9.506v-1.19
	c0-0.652,0.524-1.176,1.176-1.176h0.68C3.272,6.998,3.258,6.842,3.258,6.701V6.403H0.354C0.156,6.403,0,6.247,0,6.049
	c0-0.198,0.156-0.354,0.354-0.354h2.904V4.944H2.607c-0.652,0-1.176-0.524-1.176-1.176v-1.19c0-0.198,0.156-0.354,0.354-0.354
	c0.198,0,0.354,0.156,0.354,0.354v1.19c0,0.255,0.212,0.467,0.467,0.467h0.666c0.085-0.666,0.652-1.19,1.346-1.19h3.896
	c0.694,0,1.261,0.524,1.346,1.19h0.68c0.255,0,0.467-0.212,0.467-0.467v-1.19c0-0.198,0.156-0.354,0.354-0.354
	s0.354,0.156,0.354,0.354v1.19c0,0.652-0.524,1.176-1.176,1.176H9.888v0.751h2.904c0.198,0,0.354,0.156,0.354,0.354
	c0,0.198-0.156,0.354-0.354,0.354H9.888v0.297c0,0.156-0.014,0.297-0.028,0.439h0.68c0.652,0,1.176,0.524,1.176,1.176v1.19
	c0,0.198-0.156,0.354-0.354,0.354s-0.354-0.156-0.354-0.354v-1.19c0-0.255-0.212-0.467-0.467-0.467H9.69
	c-0.482,1.247-1.686,2.153-3.117,2.153S3.938,9.095,3.471,7.834h-0.85C2.352,7.834,2.139,8.046,2.139,8.316z M8.528,3.74H6.927
	v5.525C8.202,9.095,9.18,8.004,9.18,6.687V4.392C9.18,4.038,8.882,3.74,8.528,3.74z M3.966,6.687c0,1.317,0.977,2.408,2.252,2.578
	V3.74H4.618c-0.368,0-0.652,0.297-0.652,0.652V6.687z"/>
</svg>
